<svg id="Layer_1" data-name="Layer 1" xmlns="http://www.w3.org/2000/svg" viewBox="0 0 419.13 127.77" preserveAspectRatio="xMinYMid"><defs><style>.cls-1{fill:#fff;}.cls-1,.cls-2,.cls-3{fill-rule:evenodd;}.cls-2,.cls-5{fill:#231f20;}.cls-3{fill:#043266;}.cls-4{fill:#093266;}</style></defs><title>alza_cz</title><polygon class="cls-1" points="19.04 54.46 32.25 25.45 62.9 19.09 99.68 23.57 107.23 44.32 96.97 102.91 25.18 102.08 15.27 87.7 19.04 54.46"/><path class="cls-2" d="M211.44,271.73l40.93-9.28A33.62,33.62,0,0,0,238.23,279l26.82,2.22c1.23-5.34,7-8.3,12.15-8.3,6.84,0,8.92,4.71,7.26,10.37-19.3,0-45.53,3.86-53,24.17-2.55,7-1.93,15.57,3.77,20.92,3.86,3.62,9.65,5.28,16.73,5.28,9.58,0,22.19-3.51,27.56-12.15l-0.89,8.15,0.44,2.82h28c-1.15-4.59-.57-10.21.15-14.82,1.14-6.59,2.78-13.55,4.17-20.55l10,44-89.65,20.32-20.32-89.65h0Zm72.62-16.46,17-3.86,1.5,6.64C297.05,255.87,290.27,255.34,284.05,255.27Z" transform="translate(-211.44 -233.61)"/><path class="cls-3" d="M222,253.94l89.65-20.32L332,323.27,306.58,329a49.53,49.53,0,0,1,.7-11.38c2.36-13.58,6.82-28.74,6.82-42.52,0-18.08-17.75-19.86-31.71-19.86-17.88,0-36.89,5.65-44.15,23.71l26.82,2.22c1.23-5.34,7-8.3,12.15-8.3,6.84,0,8.92,4.71,7.26,10.37-18,0-42.06,3.36-51.22,20.33L222,253.94h0Zm69.43,78.52H279.13l-0.44-2.82,0.89-8.15c-5.37,8.64-18,12.15-27.56,12.15a28.94,28.94,0,0,1-12.51-2.43l2.81,12.37,49.1-11.13h0Zm-9-35.26c-6.78,0-16.1,2.25-19.78,8.63a7.81,7.81,0,0,0-1,6.19,6.68,6.68,0,0,0,1,2.45c2.3,3.19,9.53,1.58,12.43-.2C280.47,311,281.35,303,282.39,297.19Z" transform="translate(-211.44 -233.61)"/><path class="cls-4" d="M404.54,324.15H385.41q-0.11-1.46-.09-2.36c0-1.69.2-3.69,0.47-6q-6,9.5-16.3,9.49c-4.66,0-8.38-1.38-11.2-4.15a13.5,13.5,0,0,1-4.07-10.4,16.59,16.59,0,0,1,2.54-8.54,17.28,17.28,0,0,1,6.73-6.16,28.53,28.53,0,0,1,8.8-3c3-.48,8.81-1.14,17.48-2a10.28,10.28,0,0,0,.65-2.9c0.07-2.77-1.77-4.17-5.51-4.17s-6.44,1.9-8.29,5.67l-15.85-3.36q6.39-14.06,27-14.05,10.42,0,16.28,3.72a11.84,11.84,0,0,1,5.71,11q-0.08,3.25-4,23a71.64,71.64,0,0,0-1.56,9.75,23.1,23.1,0,0,0,.39,4.46h0Zm-16.67-24q-13.35,1.05-13.54,8.79-0.1,4.25,4.21,4.25a8.39,8.39,0,0,0,5.58-2.54q2.81-2.56,3.74-10.5h0Zm51.73-44.28H421l-12.69,68.28h18.61l12.69-68.28h0Zm37.69,55.63L475,324.15H431.17l2.11-11.35,25-26.91H439.92l2.28-12.26h42.16l-1.84,9.75-26.29,28.12H477.3Zm52.12,12.65a23.14,23.14,0,0,1-.39-4.46,71.67,71.67,0,0,1,1.56-9.75q3.95-19.77,4-23a11.85,11.85,0,0,0-5.71-11q-5.86-3.71-16.28-3.72-20.59,0-27,14.05l15.85,3.36q2.77-5.66,8.29-5.67c3.74,0,5.57,1.4,5.51,4.17a10.29,10.29,0,0,1-.65,2.9c-8.67.82-14.51,1.49-17.48,2a28.53,28.53,0,0,0-8.8,3,17.28,17.28,0,0,0-6.73,6.16,16.59,16.59,0,0,0-2.54,8.54,13.5,13.5,0,0,0,4.07,10.4c2.81,2.77,6.53,4.15,11.2,4.15q10.32,0,16.3-9.49c-0.27,2.31-.43,4.3-0.47,6q0,0.9.09,2.36h19.13Zm-16.67-24q-0.93,7.94-3.74,10.5a8.39,8.39,0,0,1-5.58,2.54q-4.32,0-4.21-4.25Q499.39,301.2,512.75,300.14Z" transform="translate(-211.44 -233.61)"/><polygon class="cls-5" points="338.9 76.62 336.56 90.53 322.15 90.53 324.46 76.62 338.9 76.62"/><path class="cls-5" d="M578.12,309.06l11.72,2.87q-3.15,7.53-8.26,10.43a21.18,21.18,0,0,1-10.57,2.9,17.42,17.42,0,0,1-18.19-18.17,23.9,23.9,0,0,1,6-16.08q6-7,15.91-7a17.94,17.94,0,0,1,12.18,4.33,14,14,0,0,1,5,11.12L578.73,301q0-6.29-4.26-6.29c-2.44,0-4.16,1.72-5.19,5.14a32.17,32.17,0,0,0-1.53,9c0,3.79,1.44,5.69,4.3,5.69S576.88,312.69,578.12,309.06Z" transform="translate(-211.44 -233.61)"/><polygon class="cls-5" points="414.25 80.82 412.64 90.53 377.93 90.53 379.38 81.81 398.66 61.16 384.14 61.16 385.71 51.74 419.13 51.74 417.86 59.23 397.55 80.82 414.25 80.82"/></svg>